<?xml version="1.0" encoding="utf-8"?>
<!-- Generator: Adobe Illustrator 27.5.0, SVG Export Plug-In . SVG Version: 6.00 Build 0)  -->
<svg version="1.1" xmlns="http://www.w3.org/2000/svg" xmlns:xlink="http://www.w3.org/1999/xlink" x="0px" y="0px"
	 viewBox="0 0 500 500" style="enable-background:new 0 0 500 500;" xml:space="preserve">
<g id="BACKGROUND">
	<rect style="fill:#FFFFFF;" width="500" height="500"/>
</g>
<g id="OBJECTS">
	<g>
		<g>
			<g>
				
					<text transform="matrix(1 0 0 1 53.9905 144.8208)" style="fill:#303F3C; font-family:'Montserrat-ExtraBold'; font-size:26.2205px;">COMPANY</text>
				
					<text transform="matrix(1 0 0 1 69.1457 154.9443)" style="fill:#303F3C; font-family:'Montserrat-SemiBold'; font-size:7.3366px; letter-spacing:5;">YOUR SLOGAN</text>
			</g>
			<g>
				<path style="fill:#38A898;" d="M141.872,54.867h-22.116V43.124h33.858l0,0C153.615,49.609,148.357,54.867,141.872,54.867z"/>
				<path style="fill:#38A898;" d="M138.447,83.245h-18.691V71.502h18.691c3.243,0,5.871,2.629,5.871,5.871l0,0
					C144.318,80.616,141.69,83.245,138.447,83.245z"/>
				<path style="fill:#38A898;" d="M141.872,99.881h-22.116v11.743h33.858l0,0C153.615,105.138,148.357,99.881,141.872,99.881z"/>
				<g>
					<g>
						<g>
							<polyline style="fill:#38A898;" points="144.319,62.417 144.319,65.516 114.178,65.516 114.178,62.417 							"/>
						</g>
						<g>
							<rect x="114.178" y="89.231" style="fill:#38A898;" width="30.14" height="3.099"/>
						</g>
					</g>
					<g>
						<path style="fill:#38A898;" d="M107.092,67.943v18.862c0,1.338,1.088,2.426,2.425,2.426h4.661V65.516h-4.661
							C108.18,65.516,107.092,66.605,107.092,67.943z"/>
						<path style="fill:#38A898;" d="M109.518,92.33c-3.046,0-5.524-2.478-5.524-5.525V67.943c0-3.047,2.478-5.525,5.524-5.525
							h4.661V43.124c-7.458,0-13.504,6.046-13.504,13.504v41.491c0,7.458,6.046,13.504,13.504,13.504V92.33H109.518z"/>
					</g>
				</g>
			</g>
		</g>
		<g>
			<g>
				
					<text transform="matrix(1 0 0 1 299.7014 144.8203)" style="fill:#303F3C; font-family:'Montserrat-ExtraBold'; font-size:26.2205px;">COMPANY</text>
				
					<text transform="matrix(1 0 0 1 314.8567 154.9438)" style="fill:#303F3C; font-family:'Montserrat-SemiBold'; font-size:7.3366px; letter-spacing:5;">YOUR SLOGAN</text>
			</g>
			<g>
				
					<ellipse transform="matrix(0.2298 -0.9732 0.9732 0.2298 216.834 418.5635)" style="fill:#38A898;" cx="372.856" cy="72.291" rx="35.711" ry="35.711"/>
				<path style="fill:#FFFFFF;" d="M372.856,40.431c-11.667,0-21.863,6.274-27.414,15.629c-0.062,0.103-0.119,0.208-0.179,0.312
					c-0.381,0.659-0.745,1.329-1.079,2.016c-0.188,0.381-0.357,0.771-0.53,1.16c-0.11,0.252-0.217,0.506-0.32,0.762
					c-1.294,3.136-2.128,6.503-2.34,10.039c-0.602,10.07,3.519,19.212,10.345,25.435c0.06,0.055,0.121,0.111,0.182,0.166
					c0.279,0.25,0.561,0.495,0.849,0.735c0.149,0.125,0.299,0.249,0.45,0.372c0.211,0.17,0.424,0.338,0.64,0.502
					c0.241,0.186,0.486,0.367,0.733,0.546c0.137,0.099,0.275,0.197,0.414,0.294c0.34,0.239,0.686,0.47,1.036,0.695
					c0.054,0.035,0.107,0.07,0.162,0.104c4.932,3.132,10.778,4.954,17.053,4.954c17.596,0,31.86-14.264,31.86-31.86
					S390.452,40.431,372.856,40.431z M394.216,93.903c-2.83-2.184-6.712-2.419-9.918-0.645c-3.499,1.936-7.45,2.964-11.56,2.964
					c-11.852,0-21.692-8.67-23.578-19.995h23.235c4.348,0,7.872-3.524,7.872-7.872H349.16c1.886-11.325,11.726-19.995,23.578-19.995
					c4.11,0,8.061,1.029,11.56,2.964c3.206,1.774,7.088,1.539,9.918-0.645c5.58,5.516,9.048,13.164,9.048,21.612
					S399.796,88.387,394.216,93.903z"/>
			</g>
		</g>
		<g>
			<g>
				
					<text transform="matrix(1 0 0 1 299.7014 300.3906)" style="fill:#303F3C; font-family:'Montserrat-ExtraBold'; font-size:26.2205px;">COMPANY</text>
				
					<text transform="matrix(1 0 0 1 314.8567 310.5137)" style="fill:#303F3C; font-family:'Montserrat-SemiBold'; font-size:7.3366px; letter-spacing:5;">YOUR SLOGAN</text>
			</g>
			<g>
				<rect x="396.609" y="233.879" style="fill:#38A898;" width="11.877" height="11.877"/>
				<polygon style="fill:#38A898;" points="349.102,245.756 349.102,257.633 360.978,257.633 360.978,263.571 384.733,263.571 
					384.733,257.633 396.609,257.633 396.609,245.756 				"/>
				<rect x="337.224" y="210.17" style="fill:#38A898;" width="11.877" height="35.586"/>
				<polygon style="fill:#38A898;" points="384.733,198.089 384.733,192.15 360.978,192.15 360.978,198.089 349.102,198.089 
					349.102,209.966 396.609,209.966 396.609,198.089 				"/>
				<polygon style="fill:#38A898;" points="396.609,209.966 396.609,215.904 372.855,215.904 372.855,227.781 396.609,227.781 
					396.609,221.843 408.487,221.843 408.487,209.966 				"/>
			</g>
		</g>
		<g>
			<g>
				
					<text transform="matrix(1 0 0 1 53.9895 453.3516)" style="fill:#303F3C; font-family:'Montserrat-ExtraBold'; font-size:26.2205px;">COMPANY</text>
				
					<text transform="matrix(1 0 0 1 69.1448 463.4746)" style="fill:#303F3C; font-family:'Montserrat-SemiBold'; font-size:7.3366px; letter-spacing:5;">YOUR SLOGAN</text>
			</g>
			<path style="fill:#38A898;" d="M127.144,345.112l-35.711,35.711l35.711,35.711l35.711-35.711L127.144,345.112z M131.91,373.655
				l-14.575,14.575l-7.407-7.407l18.418-18.418c0.318-0.319,0.497-0.751,0.497-1.201v-8.56l26.481,26.481h-8.56
				c-0.451,0-0.882,0.179-1.201,0.497l-18.418,18.418l-7.407-7.407l14.575-14.575L131.91,373.655z M125.446,352.643v7.857
				l-19.121,19.122c-0.663,0.663-0.663,1.738,0,2.401l8.608,8.609l-3.928,3.928l-13.738-13.738L125.446,352.643z M113.407,396.962
				l3.928-3.928l8.608,8.608c0.332,0.331,0.767,0.497,1.201,0.497c0.435,0,0.87-0.166,1.201-0.497l19.121-19.122h7.856
				L127.144,410.7L113.407,396.962z"/>
		</g>
		<g>
			<g>
				
					<text transform="matrix(1 0 0 1 299.7014 453.3525)" style="fill:#303F3C; font-family:'Montserrat-ExtraBold'; font-size:26.2205px;">COMPANY</text>
				
					<text transform="matrix(1 0 0 1 314.8567 463.4756)" style="fill:#303F3C; font-family:'Montserrat-SemiBold'; font-size:7.3366px; letter-spacing:5;">YOUR SLOGAN</text>
			</g>
			<g>
				<path style="fill:#38A898;" d="M372.856,347.905c-18.921,0-34.315,15.393-34.315,34.315c0,18.921,15.393,34.314,34.315,34.314
					c18.921,0,34.315-15.393,34.315-34.314C407.171,363.298,391.777,347.905,372.856,347.905z M372.856,413.88
					c-17.458,0-31.661-14.203-31.661-31.66c0-17.457,14.203-31.661,31.661-31.661c17.458,0,31.661,14.203,31.661,31.661
					C404.517,399.677,390.314,413.88,372.856,413.88z"/>
				<path style="fill:#38A898;" d="M372.856,355.548c-14.706,0-26.671,11.965-26.671,26.672s11.965,26.672,26.671,26.672
					c14.707,0,26.672-11.965,26.672-26.672S387.563,355.548,372.856,355.548z M348.839,382.219c0-12.798,10.062-23.288,22.69-23.979
					v5.22c-9.761,0.686-17.5,8.827-17.5,18.76c0,9.933,7.738,18.074,17.5,18.76v5.22
					C358.901,405.507,348.839,395.017,348.839,382.219z M374.183,406.199v-5.208c7.963-0.561,14.792-6.119,16.868-13.915
					l-2.565-0.682c-1.881,7.064-8.308,11.999-15.63,11.999c-8.918,0-16.173-7.255-16.173-16.173c0-8.918,7.255-16.173,16.173-16.173
					c8.471,0,15.442,6.547,16.119,14.846h-12.547c-0.541-1.454-1.929-2.495-3.571-2.495c-2.111,0-3.822,1.711-3.822,3.822
					c0,2.111,1.711,3.822,3.822,3.822c1.642,0,3.03-1.041,3.571-2.495h15.255v-1.327c0-9.933-7.738-18.074-17.5-18.76v-5.22
					c12.628,0.691,22.691,11.182,22.691,23.979C396.873,395.017,386.811,405.507,374.183,406.199z"/>
			</g>
		</g>
		<g>
			<g>
				
					<text transform="matrix(1 0 0 1 53.9895 300.3906)" style="fill:#303F3C; font-family:'Montserrat-ExtraBold'; font-size:26.2205px;">COMPANY</text>
				
					<text transform="matrix(1 0 0 1 69.1448 310.5146)" style="fill:#303F3C; font-family:'Montserrat-SemiBold'; font-size:7.3366px; letter-spacing:5;">YOUR SLOGAN</text>
			</g>
			<path style="fill:#38A898;" d="M101.893,202.627c-13.923,13.923-13.923,36.579,0.001,50.503
				c13.923,13.923,36.579,13.923,50.502,0c13.923-13.923,13.923-36.579,0-50.502C138.471,188.704,115.816,188.704,101.893,202.627z
				 M105.507,205.098c9.172-8.719,22.912-10.672,34.544-5.69c6.33,2.711,10.641,6.942,13.669,11.758l-5.923,5.923l-3.23,3.23
				l-0.167,0.167c-1.535,1.535-2.287,3.677-2.068,5.837c0.452,4.459-1.052,9.078-4.518,12.463c-4.875,4.761-12.601,5.7-18.452,2.207
				c-1.565-0.934-2.859-2.08-3.923-3.352l21.489-21.49l0.489-0.489l3.194-3.194c1.1-1.1,0.951-2.953-0.333-3.832
				c-9.343-6.392-22.309-5.217-30.316,3.531c-5.979,6.532-7.515,15.761-4.651,23.688c0.418,1.156,0.09,2.45-0.779,3.319
				l-4.505,4.505C92.898,231.432,94.699,215.373,105.507,205.098z M112.31,231.398c-1.179-4.98,0.171-10.437,4.056-14.322
				c3.884-3.884,9.34-5.233,14.319-4.053L112.31,231.398z M149.36,250.094c-12.563,12.563-33.205,12.242-45.354-0.963
				c0-0.022,0-0.036,0.001-0.058l5.749-5.749c0.153,0.171,0.302,0.344,0.46,0.511c9.046,9.582,24.15,9.746,33.403,0.492
				c5.145-5.145,7.37-12.099,6.691-18.815c-0.08-0.788,0.167-1.57,0.727-2.13l5.762-5.763
				C160.585,228.627,158.129,241.325,149.36,250.094z"/>
		</g>
	</g>
</g>
</svg>
